<svg height='100px' width='100px'  fill="#000000" xmlns="http://www.w3.org/2000/svg" xmlns:xlink="http://www.w3.org/1999/xlink" xml:space="preserve" version="1.1" style="shape-rendering:geometricPrecision;text-rendering:geometricPrecision;image-rendering:optimizeQuality;" viewBox="0 0 434.04 374.94" x="0px" y="0px" fill-rule="evenodd" clip-rule="evenodd"><defs><style type="text/css">
   
    .fil0 {fill:#000000}
    .fil1 {fill:#000000;fill-rule:nonzero}
   
  </style></defs><g><path class="fil0" d="M378.58 179.16l0 173.68c0,12.17 -9.93,22.1 -22.1,22.1l-96.26 0 0 -141.58 -86.38 0 0 141.58 -96.28 0c-12.18,0 -22.11,-9.93 -22.11,-22.1l0 -173.68 161.57 -115.68 161.56 115.68z"></path><path class="fil1" d="M29.03 175.52c-8.23,5.9 -19.7,4 -25.6,-4.23 -5.89,-8.23 -3.99,-19.7 4.24,-25.6l47.46 -33.99 0 -45.02c0,-10.14 8.22,-18.36 18.36,-18.36 10.14,0 18.36,8.22 18.36,18.36l0 18.73 114.49 -81.98c6.61,-4.73 15.31,-4.44 21.54,0.13l198.49 142.13c8.23,5.9 10.13,17.37 4.23,25.6 -5.89,8.23 -17.37,10.13 -25.6,4.23l-187.98 -134.61 -187.99 134.61z"></path></g></svg>