<svg height='100px' width='100px'  fill="#000000" xmlns="http://www.w3.org/2000/svg" xmlns:xlink="http://www.w3.org/1999/xlink" version="1.1" x="0px" y="0px" viewBox="0 0 100 100" style="enable-background:new 0 0 100 100;" xml:space="preserve"><g><path d="M90.2,47.3c0-0.1,0-0.1,0-0.2c0,0,0-0.1,0-0.1c0-0.1,0-0.1-0.1-0.2c0,0,0-0.1,0-0.1c0-0.1-0.1-0.1-0.1-0.2   c0,0,0-0.1-0.1-0.1c0,0-0.1-0.1-0.1-0.1c0,0,0,0,0,0L50.6,11.6c-0.1-0.1-0.1-0.1-0.2-0.1c-0.1-0.1-0.2-0.1-0.3-0.1   c-0.1,0-0.2-0.1-0.3-0.1c-0.1,0-0.2,0-0.3,0c-0.1,0-0.2,0-0.3,0c-0.1,0-0.2,0-0.3,0.1c-0.1,0-0.2,0.1-0.3,0.2   c-0.1,0-0.1,0.1-0.2,0.1L10.3,46.3c0,0,0,0,0,0c-0.1,0.1-0.2,0.3-0.3,0.4c0,0,0,0,0,0.1c-0.1,0.2-0.1,0.3-0.1,0.5c0,0,0,0,0,0.1   c0,0,0,0,0,0c0,0.2,0,0.3,0.1,0.4c0,0,0,0,0,0.1c0.1,0.2,0.2,0.3,0.3,0.5c0,0,0,0,0,0c0,0,0,0,0,0c0,0,0.1,0.1,0.1,0.1   c0,0,0.1,0.1,0.1,0.1c0.1,0,0.1,0.1,0.2,0.1c0,0,0,0,0.1,0c0.2,0.1,0.4,0.1,0.6,0.1h8.8v38.3c0,0.8,0.7,1.5,1.5,1.5h21.2   c0.8,0,1.5-0.7,1.5-1.5V67.1H55v20.1c0,0.8,0.7,1.5,1.5,1.5h21.2c0.8,0,1.5-0.7,1.5-1.5V48.9h9.5c0.3,0,0.6-0.1,0.9-0.3   c0,0,0,0,0,0c0.1-0.1,0.1-0.1,0.2-0.2c0,0,0,0,0,0c0,0,0,0,0,0c0-0.1,0.1-0.1,0.1-0.2c0,0,0,0,0-0.1c0-0.1,0.1-0.1,0.1-0.2   c0,0,0-0.1,0-0.1c0-0.1,0-0.1,0-0.2c0,0,0-0.1,0-0.1c0,0,0-0.1,0-0.1C90.2,47.4,90.2,47.4,90.2,47.3C90.2,47.3,90.2,47.3,90.2,47.3   z M77.7,45.9c-0.8,0-1.5,0.7-1.5,1.5v38.3H58V65.6c0-0.8-0.7-1.5-1.5-1.5H42.8c-0.8,0-1.5,0.7-1.5,1.5v20.1H23.1V47.4   c0-0.8-0.7-1.5-1.5-1.5h-6.4l34.5-31.2l35.1,31.2H77.7z"></path></g></svg>