<svg height='100px' width='100px'  fill="#000000" xmlns="http://www.w3.org/2000/svg" xmlns:xlink="http://www.w3.org/1999/xlink" version="1.1" x="0px" y="0px" viewBox="0 0 100 100" style="enable-background:new 0 0 100 100;" xml:space="preserve"><g><path d="M68.6,47.6c1.3-2.7,2.1-5.8,2.1-9c0-11.4-9.3-20.7-20.7-20.7c-11.4,0-20.7,9.3-20.7,20.7c0,3.2,0.8,6.3,2.1,9   c0,0,0.4,0.9,0.5,1L50,82.1l17.9-33C68.1,48.7,68.6,47.6,68.6,47.6z M50,28.3c5.7,0,10.3,4.6,10.3,10.3S55.7,49,50,49   c-5.7,0-10.3-4.6-10.3-10.3S44.3,28.3,50,28.3z"></path></g></svg>