<svg height='100px' width='100px'  fill="#000000" xmlns="http://www.w3.org/2000/svg" xmlns:xlink="http://www.w3.org/1999/xlink" xml:space="preserve" version="1.1" style="shape-rendering:geometricPrecision;text-rendering:geometricPrecision;image-rendering:optimizeQuality;" viewBox="0 0 351.04 351.04" x="0px" y="0px" fill-rule="evenodd" clip-rule="evenodd"><defs><style type="text/css">
   
    .fil0 {fill:#000000}
   
  </style></defs><g><path class="fil0" d="M91.96 140.25l21.29 -13.34c7.56,-4.74 11.38,-13.44 9.89,-22.23l-13.94 -82.62c-2.09,-12.45 -11.78,-22.06 -24.4,-22.06l-19.7 0c-5.87,0 -10.95,1.79 -15.51,5.5 -29.61,24.03 -50.29,52.72 -49.57,92.43 1.78,99.24 153.86,251.31 253.09,253.09 39.71,0.72 68.4,-19.96 92.43,-49.57 3.71,-4.56 5.5,-9.64 5.5,-15.51l0 -19.7c0,-12.62 -9.61,-22.31 -22.06,-24.4l-82.62 -13.94c-8.79,-1.49 -17.49,2.33 -22.23,9.89l-13.34 21.29c-2.35,3.76 -7.12,4.7 -11.12,2.77 -42.52,-20.48 -90.42,-67.58 -110.49,-110.49 -1.88,-4.02 -0.99,-8.77 2.77,-11.12z"></path></g></svg>