<svg height='100px' width='100px'  fill="#000000" xmlns="http://www.w3.org/2000/svg" viewBox="0 0 52 65" x="0px" y="0px"><path fill="#000000" d="M697,1274 C692.581722,1274 689,1270.41828 689,1266 C689,1261.58172 692.581722,1258 697,1258 C701.418278,1258 705,1261.58172 705,1266 C705,1270.41828 701.418278,1274 697,1274 Z M697,1272 C700.313708,1272 703,1269.31371 703,1266 C703,1262.68629 700.313708,1260 697,1260 C693.686292,1260 691,1262.68629 691,1266 C691,1269.31371 693.686292,1272 697,1272 Z M701.457272,1279.71529 L695.843535,1288.53688 C695.659977,1288.82532 695.341774,1289 694.999874,1289 L684.999874,1289 C684.447589,1289 683.999874,1288.55228 683.999874,1288 C683.999874,1287.44772 684.447589,1287 684.999874,1287 L694.450928,1287 L701.156212,1276.46312 C701.302143,1276.23418 701.540155,1276.06497 701.828717,1276.01479 C702.372835,1275.92016 702.890641,1276.28454 702.98527,1276.82866 L706.98527,1299.82866 C707.071268,1300.32315 706.777396,1300.80477 706.298334,1300.95448 L690.8791,1305.77299 L687.984842,1322.17379 C687.888863,1322.71767 687.370154,1323.08076 686.826273,1322.98478 C686.282392,1322.8888 685.919296,1322.3701 686.015275,1321.82621 L689.015275,1304.82621 C689.08023,1304.45814 689.345031,1304.15701 689.701784,1304.04552 L704.864554,1299.30715 L701.457272,1279.71529 Z M715,1311 L698,1311 C697.447715,1311 697,1310.55228 697,1310 C697,1309.44772 697.447715,1309 698,1309 L715,1309 C715.552285,1309 716,1309.44772 716,1310 C716,1310.55228 715.552285,1311 715,1311 Z M683,1294 C683.552285,1294 684,1294.44772 684,1295 C684,1295.55228 683.552285,1296 683,1296 L671,1296 C670.591095,1296 670.223387,1295.75105 670.071523,1295.37139 L664.071523,1280.37139 C663.86641,1279.85861 664.115826,1279.27664 664.628609,1279.07152 C665.141393,1278.86641 665.723363,1279.11583 665.928477,1279.62861 L671.677033,1294 L683,1294 Z" transform="translate(-664 -1258)"></path></svg>